{
	"asset":{
		"generator":"Khronos glTF Blender I/O v4.1.62",
		"version":"2.0"
	},
	"scene":0,
	"scenes":[
		{
			"name":"Scene",
			"nodes":[
				0,
				1,
				2,
				3,
				4,
				5
			]
		}
	],
	"nodes":[
		{
			"mesh":0,
			"name":"Plane",
			"scale":[
				6,
				6,
				6
			]
		},
		{
			"mesh":1,
			"name":"Plane.001",
			"scale":[
				4.700000286102295,
				4.700000286102295,
				4.700000286102295
			]
		},
		{
			"mesh":2,
			"name":"Plane.002",
			"rotation":[
				-0.7071068286895752,
				0,
				0,
				0.7071068286895752
			],
			"scale":[
				4.5,
				1,
				1
			],
			"translation":[
				-0.4000000059604645,
				1,
				2.0600452423095703
			]
		},
		{
			"mesh":3,
			"name":"Plane.003",
			"rotation":[
				-0.5,
				-0.5,
				-0.5,
				0.5
			],
			"scale":[
				4.938896179199219,
				1,
				1
			],
			"translation":[
				-4.43217658996582,
				1,
				-1.8000000715255737
			]
		},
		{
			"mesh":4,
			"name":"Plane.004",
			"rotation":[
				-0.5,
				0.5,
				0.5,
				0.5
			],
			"scale":[
				4.938896179199219,
				1,
				1
			],
			"translation":[
				3.380133628845215,
				1,
				-2.1000001430511475
			]
		},
		{
			"mesh":5,
			"name":"Plane.005",
			"rotation":[
				0,
				-0.7071068286895752,
				-0.7071068286895752,
				1.1520233300643667e-07
			],
			"scale":[
				4.938896179199219,
				1,
				1
			],
			"translation":[
				-0.7000000476837158,
				1,
				-6.099999904632568
			]
		}
	],
	"meshes":[
		{
			"name":"Plane",
			"primitives":[
				{
					"attributes":{
						"POSITION":0,
						"NORMAL":1,
						"TEXCOORD_0":2
					},
					"indices":3
				}
			]
		},
		{
			"name":"Plane.001",
			"primitives":[
				{
					"attributes":{
						"POSITION":4,
						"NORMAL":5,
						"TEXCOORD_0":6
					},
					"indices":7
				}
			]
		},
		{
			"name":"Plane.002",
			"primitives":[
				{
					"attributes":{
						"POSITION":8,
						"NORMAL":9,
						"TEXCOORD_0":10
					},
					"indices":11
				}
			]
		},
		{
			"name":"Plane.003",
			"primitives":[
				{
					"attributes":{
						"POSITION":12,
						"NORMAL":13,
						"TEXCOORD_0":14
					},
					"indices":11
				}
			]
		},
		{
			"name":"Plane.004",
			"primitives":[
				{
					"attributes":{
						"POSITION":15,
						"NORMAL":16,
						"TEXCOORD_0":17
					},
					"indices":11
				}
			]
		},
		{
			"name":"Plane.005",
			"primitives":[
				{
					"attributes":{
						"POSITION":18,
						"NORMAL":19,
						"TEXCOORD_0":20
					},
					"indices":11
				}
			]
		}
	],
	"accessors":[
		{
			"bufferView":0,
			"componentType":5126,
			"count":806,
			"max":[
				0.6834249496459961,
				0.39027297496795654,
				0.4491865038871765
			],
			"min":[
				-0.6843472719192505,
				-0.011313962750136852,
				-1
			],
			"type":"VEC3"
		},
		{
			"bufferView":1,
			"componentType":5126,
			"count":806,
			"type":"VEC3"
		},
		{
			"bufferView":2,
			"componentType":5126,
			"count":806,
			"type":"VEC2"
		},
		{
			"bufferView":3,
			"componentType":5123,
			"count":1230,
			"type":"SCALAR"
		},
		{
			"bufferView":4,
			"componentType":5126,
			"count":4,
			"max":[
				0.7446808815002441,
				0,
				0.4468085467815399
			],
			"min":[
				-0.978723406791687,
				0,
				-1.3404256105422974
			],
			"type":"VEC3"
		},
		{
			"bufferView":5,
			"componentType":5126,
			"count":4,
			"type":"VEC3"
		},
		{
			"bufferView":6,
			"componentType":5126,
			"count":4,
			"type":"VEC2"
		},
		{
			"bufferView":7,
			"componentType":5123,
			"count":6,
			"type":"SCALAR"
		},
		{
			"bufferView":8,
			"componentType":5126,
			"count":93,
			"max":[
				0.8666666746139526,
				0.1913611739873886,
				1.6000001430511475
			],
			"min":[
				-0.9333332777023315,
				-3.083567889916594e-07,
				-1
			],
			"type":"VEC3"
		},
		{
			"bufferView":9,
			"componentType":5126,
			"count":93,
			"type":"VEC3"
		},
		{
			"bufferView":10,
			"componentType":5126,
			"count":93,
			"type":"VEC2"
		},
		{
			"bufferView":11,
			"componentType":5123,
			"count":162,
			"type":"SCALAR"
		},
		{
			"bufferView":12,
			"componentType":5126,
			"count":93,
			"max":[
				0.8666666746139526,
				0.1913611739873886,
				1.6000001430511475
			],
			"min":[
				-0.9333332777023315,
				-3.083567889916594e-07,
				-1
			],
			"type":"VEC3"
		},
		{
			"bufferView":13,
			"componentType":5126,
			"count":93,
			"type":"VEC3"
		},
		{
			"bufferView":14,
			"componentType":5126,
			"count":93,
			"type":"VEC2"
		},
		{
			"bufferView":15,
			"componentType":5126,
			"count":93,
			"max":[
				0.8666666746139526,
				0.1913611739873886,
				1.6000001430511475
			],
			"min":[
				-0.9333332777023315,
				-3.083567889916594e-07,
				-1
			],
			"type":"VEC3"
		},
		{
			"bufferView":16,
			"componentType":5126,
			"count":93,
			"type":"VEC3"
		},
		{
			"bufferView":17,
			"componentType":5126,
			"count":93,
			"type":"VEC2"
		},
		{
			"bufferView":18,
			"componentType":5126,
			"count":93,
			"max":[
				0.8666666746139526,
				0.1913611739873886,
				1.6000001430511475
			],
			"min":[
				-0.9333332777023315,
				-3.083567889916594e-07,
				-1
			],
			"type":"VEC3"
		},
		{
			"bufferView":19,
			"componentType":5126,
			"count":93,
			"type":"VEC3"
		},
		{
			"bufferView":20,
			"componentType":5126,
			"count":93,
			"type":"VEC2"
		}
	],
	"bufferViews":[
		{
			"buffer":0,
			"byteLength":9672,
			"byteOffset":0,
			"target":34962
		},
		{
			"buffer":0,
			"byteLength":9672,
			"byteOffset":9672,
			"target":34962
		},
		{
			"buffer":0,
			"byteLength":6448,
			"byteOffset":19344,
			"target":34962
		},
		{
			"buffer":0,
			"byteLength":2460,
			"byteOffset":25792,
			"target":34963
		},
		{
			"buffer":0,
			"byteLength":48,
			"byteOffset":28252,
			"target":34962
		},
		{
			"buffer":0,
			"byteLength":48,
			"byteOffset":28300,
			"target":34962
		},
		{
			"buffer":0,
			"byteLength":32,
			"byteOffset":28348,
			"target":34962
		},
		{
			"buffer":0,
			"byteLength":12,
			"byteOffset":28380,
			"target":34963
		},
		{
			"buffer":0,
			"byteLength":1116,
			"byteOffset":28392,
			"target":34962
		},
		{
			"buffer":0,
			"byteLength":1116,
			"byteOffset":29508,
			"target":34962
		},
		{
			"buffer":0,
			"byteLength":744,
			"byteOffset":30624,
			"target":34962
		},
		{
			"buffer":0,
			"byteLength":324,
			"byteOffset":31368,
			"target":34963
		},
		{
			"buffer":0,
			"byteLength":1116,
			"byteOffset":31692,
			"target":34962
		},
		{
			"buffer":0,
			"byteLength":1116,
			"byteOffset":32808,
			"target":34962
		},
		{
			"buffer":0,
			"byteLength":744,
			"byteOffset":33924,
			"target":34962
		},
		{
			"buffer":0,
			"byteLength":1116,
			"byteOffset":34668,
			"target":34962
		},
		{
			"buffer":0,
			"byteLength":1116,
			"byteOffset":35784,
			"target":34962
		},
		{
			"buffer":0,
			"byteLength":744,
			"byteOffset":36900,
			"target":34962
		},
		{
			"buffer":0,
			"byteLength":1116,
			"byteOffset":37644,
			"target":34962
		},
		{
			"buffer":0,
			"byteLength":1116,
			"byteOffset":38760,
			"target":34962
		},
		{
			"buffer":0,
			"byteLength":744,
			"byteOffset":39876,
			"target":34962
		}
	],
	"buffers":[
		{
			"byteLength":40620,
			"uri":"Map.bin"
		}
	]
}
