{
	"asset":{
		"generator":"Khronos glTF Blender I/O v4.1.62",
		"version":"2.0"
	},
	"extensionsUsed":[
		"KHR_materials_specular"
	],
	"scene":0,
	"scenes":[
		{
			"name":"Scene",
			"nodes":[
				0,
				1,
				2,
				3,
				4,
				5
			]
		}
	],
	"nodes":[
		{
			"mesh":0,
			"name":"Icosphere",
			"rotation":[
				0.20893846452236176,
				0,
				0,
				0.9779288172721863
			],
			"scale":[
				0.30000001192092896,
				0.30000001192092896,
				0.30000001192092896
			]
		},
		{
			"mesh":1,
			"name":"Icosphere.001",
			"rotation":[
				-0.171073779463768,
				0,
				0,
				0.9852582216262817
			],
			"scale":[
				0.2288445383310318,
				0.2288445383310318,
				0.2288445383310318
			]
		},
		{
			"mesh":2,
			"name":"Icosphere.002",
			"rotation":[
				-0.12096743285655975,
				0.6966828107833862,
				0.12096743285655975,
				0.6966828107833862
			],
			"scale":[
				0.30721181631088257,
				0.30721181631088257,
				0.30721181631088257
			]
		},
		{
			"mesh":3,
			"name":"Icosphere.003",
			"rotation":[
				-0.12096743285655975,
				-0.6966828107833862,
				-0.12096743285655975,
				0.6966828107833862
			],
			"scale":[
				0.2544732391834259,
				0.2544732391834259,
				0.2544732391834259
			]
		},
		{
			"mesh":4,
			"name":"Icosphere.004",
			"scale":[
				0.5492182374000549,
				0.5492182374000549,
				0.5492182374000549
			]
		},
		{
			"mesh":5,
			"name":"Icosphere.005",
			"rotation":[
				-0.20609663426876068,
				0.40340089797973633,
				0.06685858219861984,
				0.8890005946159363
			],
			"scale":[
				0.1866179257631302,
				0.1866179257631302,
				0.18661794066429138
			],
			"translation":[
				0,
				0,
				-0.08305268734693527
			]
		}
	],
	"materials":[
		{
			"doubleSided":true,
			"extensions":{
				"KHR_materials_specular":{
					"specularColorFactor":[
						2.0,
						2.0,
						2.0
					]
				}
			},
			"name":"Ore",
			"pbrMetallicRoughness":{
				"baseColorFactor":[
					0,
					0.5734325647354126,
					0.800536572933197,
					1
				],
				"metallicFactor":0,
				"roughnessFactor":0
			}
		},
		{
			"doubleSided":true,
			"name":"Rock",
			"pbrMetallicRoughness":{
				"baseColorFactor":[
					0.05087411403656006,
					0.05087411403656006,
					0.05087411403656006,
					1
				],
				"metallicFactor":0,
				"roughnessFactor":0.5
			}
		},
		{
			"doubleSided":true,
			"extensions":{
				"KHR_materials_specular":{
					"specularColorFactor":[
						2.0,
						2.0,
						2.0
					]
				}
			},
			"name":"Ore.001",
			"pbrMetallicRoughness":{
				"baseColorFactor":[
					0,
					0.5734325647354126,
					0.800536572933197,
					1
				],
				"metallicFactor":0,
				"roughnessFactor":0
			}
		}
	],
	"meshes":[
		{
			"name":"Icosphere.001",
			"primitives":[
				{
					"attributes":{
						"POSITION":0,
						"NORMAL":1,
						"TEXCOORD_0":2
					},
					"indices":3,
					"material":0
				}
			]
		},
		{
			"name":"Icosphere.002",
			"primitives":[
				{
					"attributes":{
						"POSITION":4,
						"NORMAL":5,
						"TEXCOORD_0":6
					},
					"indices":3,
					"material":0
				}
			]
		},
		{
			"name":"Icosphere.003",
			"primitives":[
				{
					"attributes":{
						"POSITION":7,
						"NORMAL":8,
						"TEXCOORD_0":9
					},
					"indices":3,
					"material":0
				}
			]
		},
		{
			"name":"Icosphere.004",
			"primitives":[
				{
					"attributes":{
						"POSITION":10,
						"NORMAL":11,
						"TEXCOORD_0":12
					},
					"indices":3,
					"material":0
				}
			]
		},
		{
			"name":"Icosphere.005",
			"primitives":[
				{
					"attributes":{
						"POSITION":13,
						"NORMAL":14,
						"TEXCOORD_0":15
					},
					"indices":16,
					"material":1
				}
			]
		},
		{
			"name":"Icosphere.006",
			"primitives":[
				{
					"attributes":{
						"POSITION":17,
						"NORMAL":18,
						"TEXCOORD_0":19
					},
					"indices":3,
					"material":2
				}
			]
		}
	],
	"accessors":[
		{
			"bufferView":0,
			"componentType":5126,
			"count":45,
			"max":[
				0.6887072324752808,
				2.9598493576049805,
				0.6549928188323975
			],
			"min":[
				-0.6887072324752808,
				-0.1928422451019287,
				-0.6549928188323975
			],
			"type":"VEC3"
		},
		{
			"bufferView":1,
			"componentType":5126,
			"count":45,
			"type":"VEC3"
		},
		{
			"bufferView":2,
			"componentType":5126,
			"count":45,
			"type":"VEC2"
		},
		{
			"bufferView":3,
			"componentType":5123,
			"count":45,
			"type":"SCALAR"
		},
		{
			"bufferView":4,
			"componentType":5126,
			"count":45,
			"max":[
				0.6887072324752808,
				2.9598493576049805,
				0.6549928188323975
			],
			"min":[
				-0.6887072324752808,
				-0.1928422451019287,
				-0.6549928188323975
			],
			"type":"VEC3"
		},
		{
			"bufferView":5,
			"componentType":5126,
			"count":45,
			"type":"VEC3"
		},
		{
			"bufferView":6,
			"componentType":5126,
			"count":45,
			"type":"VEC2"
		},
		{
			"bufferView":7,
			"componentType":5126,
			"count":45,
			"max":[
				0.6887072324752808,
				2.9598493576049805,
				0.6549928188323975
			],
			"min":[
				-0.6887072324752808,
				-0.1928422451019287,
				-0.6549928188323975
			],
			"type":"VEC3"
		},
		{
			"bufferView":8,
			"componentType":5126,
			"count":45,
			"type":"VEC3"
		},
		{
			"bufferView":9,
			"componentType":5126,
			"count":45,
			"type":"VEC2"
		},
		{
			"bufferView":10,
			"componentType":5126,
			"count":45,
			"max":[
				0.6887072324752808,
				2.9598493576049805,
				0.6549928188323975
			],
			"min":[
				-0.6887072324752808,
				-0.1928422451019287,
				-0.6549928188323975
			],
			"type":"VEC3"
		},
		{
			"bufferView":11,
			"componentType":5126,
			"count":45,
			"type":"VEC3"
		},
		{
			"bufferView":12,
			"componentType":5126,
			"count":45,
			"type":"VEC2"
		},
		{
			"bufferView":13,
			"componentType":5126,
			"count":60,
			"max":[
				0.6887072324752808,
				0.7699999809265137,
				0.6549928188323975
			],
			"min":[
				-0.6887072324752808,
				-0.7699999809265137,
				-0.6549928188323975
			],
			"type":"VEC3"
		},
		{
			"bufferView":14,
			"componentType":5126,
			"count":60,
			"type":"VEC3"
		},
		{
			"bufferView":15,
			"componentType":5126,
			"count":60,
			"type":"VEC2"
		},
		{
			"bufferView":16,
			"componentType":5123,
			"count":60,
			"type":"SCALAR"
		},
		{
			"bufferView":17,
			"componentType":5126,
			"count":45,
			"max":[
				0.6887072324752808,
				2.9598493576049805,
				0.6549928188323975
			],
			"min":[
				-0.6887072324752808,
				-0.1928422451019287,
				-0.6549928188323975
			],
			"type":"VEC3"
		},
		{
			"bufferView":18,
			"componentType":5126,
			"count":45,
			"type":"VEC3"
		},
		{
			"bufferView":19,
			"componentType":5126,
			"count":45,
			"type":"VEC2"
		}
	],
	"bufferViews":[
		{
			"buffer":0,
			"byteLength":540,
			"byteOffset":0,
			"target":34962
		},
		{
			"buffer":0,
			"byteLength":540,
			"byteOffset":540,
			"target":34962
		},
		{
			"buffer":0,
			"byteLength":360,
			"byteOffset":1080,
			"target":34962
		},
		{
			"buffer":0,
			"byteLength":90,
			"byteOffset":1440,
			"target":34963
		},
		{
			"buffer":0,
			"byteLength":540,
			"byteOffset":1532,
			"target":34962
		},
		{
			"buffer":0,
			"byteLength":540,
			"byteOffset":2072,
			"target":34962
		},
		{
			"buffer":0,
			"byteLength":360,
			"byteOffset":2612,
			"target":34962
		},
		{
			"buffer":0,
			"byteLength":540,
			"byteOffset":2972,
			"target":34962
		},
		{
			"buffer":0,
			"byteLength":540,
			"byteOffset":3512,
			"target":34962
		},
		{
			"buffer":0,
			"byteLength":360,
			"byteOffset":4052,
			"target":34962
		},
		{
			"buffer":0,
			"byteLength":540,
			"byteOffset":4412,
			"target":34962
		},
		{
			"buffer":0,
			"byteLength":540,
			"byteOffset":4952,
			"target":34962
		},
		{
			"buffer":0,
			"byteLength":360,
			"byteOffset":5492,
			"target":34962
		},
		{
			"buffer":0,
			"byteLength":720,
			"byteOffset":5852,
			"target":34962
		},
		{
			"buffer":0,
			"byteLength":720,
			"byteOffset":6572,
			"target":34962
		},
		{
			"buffer":0,
			"byteLength":480,
			"byteOffset":7292,
			"target":34962
		},
		{
			"buffer":0,
			"byteLength":120,
			"byteOffset":7772,
			"target":34963
		},
		{
			"buffer":0,
			"byteLength":540,
			"byteOffset":7892,
			"target":34962
		},
		{
			"buffer":0,
			"byteLength":540,
			"byteOffset":8432,
			"target":34962
		},
		{
			"buffer":0,
			"byteLength":360,
			"byteOffset":8972,
			"target":34962
		}
	],
	"buffers":[
		{
			"byteLength":9332,
			"uri":"Gemstone_1.bin"
		}
	]
}
