{
	"asset":{
		"generator":"Khronos glTF Blender I/O v4.1.62",
		"version":"2.0"
	},
	"scene":0,
	"scenes":[
		{
			"name":"Scene",
			"nodes":[
				0,
				1,
				2,
				3,
				4,
				5,
				6
			]
		}
	],
	"nodes":[
		{
			"mesh":0,
			"name":"Cylinder",
			"scale":[
				0.8061290383338928,
				1,
				0.8061290383338928
			],
			"translation":[
				0,
				1,
				0
			]
		},
		{
			"mesh":1,
			"name":"Cylinder.001"
		},
		{
			"mesh":2,
			"name":"Cylinder.002",
			"translation":[
				0,
				6.374403953552246,
				0
			]
		},
		{
			"mesh":3,
			"name":"Cube"
		},
		{
			"mesh":4,
			"name":"Cube.001"
		},
		{
			"mesh":5,
			"name":"Cube.002",
			"rotation":[
				0,
				0.7071068286895752,
				0,
				0.7071068286895752
			]
		},
		{
			"mesh":6,
			"name":"Cylinder.003",
			"rotation":[
				0,
				0,
				-0.7071067690849304,
				0.7071068286895752
			],
			"scale":[
				0.7790009379386902,
				0.7790009379386902,
				0.7790009379386902
			],
			"translation":[
				0.985082745552063,
				1.4793213605880737,
				0
			]
		}
	],
	"materials":[
		{
			"doubleSided":true,
			"name":"Glass",
			"pbrMetallicRoughness":{
				"baseColorFactor":[
					0.800000011920929,
					0.800000011920929,
					0.800000011920929,
					1
				],
				"metallicFactor":0,
				"roughnessFactor":0.5
			}
		},
		{
			"doubleSided":true,
			"name":"Base",
			"pbrMetallicRoughness":{
				"baseColorFactor":[
					0.05554337427020073,
					0.05554337427020073,
					0.05554337427020073,
					1
				],
				"metallicFactor":0
			}
		},
		{
			"doubleSided":true,
			"name":"Metal",
			"pbrMetallicRoughness":{
				"baseColorFactor":[
					0.16971731185913086,
					0.16971731185913086,
					0.16971731185913086,
					1
				],
				"metallicFactor":0,
				"roughnessFactor":0.5
			}
		}
	],
	"meshes":[
		{
			"name":"Cylinder.004",
			"primitives":[
				{
					"attributes":{
						"POSITION":0,
						"NORMAL":1,
						"TEXCOORD_0":2
					},
					"indices":3,
					"material":0
				}
			]
		},
		{
			"name":"Cylinder.005",
			"primitives":[
				{
					"attributes":{
						"POSITION":4,
						"NORMAL":5,
						"TEXCOORD_0":6
					},
					"indices":7,
					"material":1
				}
			]
		},
		{
			"name":"Cylinder.006",
			"primitives":[
				{
					"attributes":{
						"POSITION":8,
						"NORMAL":9,
						"TEXCOORD_0":10
					},
					"indices":11,
					"material":1
				}
			]
		},
		{
			"name":"Cube.001",
			"primitives":[
				{
					"attributes":{
						"POSITION":12,
						"NORMAL":13,
						"TEXCOORD_0":14
					},
					"indices":15,
					"material":2
				}
			]
		},
		{
			"name":"Cube.002",
			"primitives":[
				{
					"attributes":{
						"POSITION":16,
						"NORMAL":17,
						"TEXCOORD_0":18
					},
					"indices":19,
					"material":2
				}
			]
		},
		{
			"name":"Cube.003",
			"primitives":[
				{
					"attributes":{
						"POSITION":20,
						"NORMAL":21,
						"TEXCOORD_0":22
					},
					"indices":19,
					"material":2
				}
			]
		},
		{
			"name":"Cylinder.007",
			"primitives":[
				{
					"attributes":{
						"POSITION":23,
						"NORMAL":24,
						"TEXCOORD_0":25
					},
					"indices":26,
					"material":2
				}
			]
		}
	],
	"accessors":[
		{
			"bufferView":0,
			"componentType":5126,
			"count":79,
			"max":[
				0.999825119972229,
				5.6047258377075195,
				0.999825119972229
			],
			"min":[
				-0.999825119972229,
				-0.0047261714935302734,
				-0.999825119972229
			],
			"type":"VEC3"
		},
		{
			"bufferView":1,
			"componentType":5126,
			"count":79,
			"type":"VEC3"
		},
		{
			"bufferView":2,
			"componentType":5126,
			"count":79,
			"type":"VEC2"
		},
		{
			"bufferView":3,
			"componentType":5123,
			"count":324,
			"type":"SCALAR"
		},
		{
			"bufferView":4,
			"componentType":5126,
			"count":54,
			"max":[
				1.3000000715255737,
				2.34263277053833,
				1.3000000715255737
			],
			"min":[
				-1.3000000715255737,
				0,
				-1.3000000715255737
			],
			"type":"VEC3"
		},
		{
			"bufferView":5,
			"componentType":5126,
			"count":54,
			"type":"VEC3"
		},
		{
			"bufferView":6,
			"componentType":5126,
			"count":54,
			"type":"VEC2"
		},
		{
			"bufferView":7,
			"componentType":5123,
			"count":168,
			"type":"SCALAR"
		},
		{
			"bufferView":8,
			"componentType":5126,
			"count":48,
			"max":[
				1.3000000715255737,
				1,
				1.3000000715255737
			],
			"min":[
				-1.3000000715255737,
				0,
				-1.3000000715255737
			],
			"type":"VEC3"
		},
		{
			"bufferView":9,
			"componentType":5126,
			"count":48,
			"type":"VEC3"
		},
		{
			"bufferView":10,
			"componentType":5126,
			"count":48,
			"type":"VEC2"
		},
		{
			"bufferView":11,
			"componentType":5123,
			"count":84,
			"type":"SCALAR"
		},
		{
			"bufferView":12,
			"componentType":5126,
			"count":88,
			"max":[
				0.4066547751426697,
				1.5985219478607178,
				1.807631015777588
			],
			"min":[
				-0.4066547751426697,
				0.45829543471336365,
				0.6676108837127686
			],
			"type":"VEC3"
		},
		{
			"bufferView":13,
			"componentType":5126,
			"count":88,
			"type":"VEC3"
		},
		{
			"bufferView":14,
			"componentType":5126,
			"count":88,
			"type":"VEC2"
		},
		{
			"bufferView":15,
			"componentType":5123,
			"count":132,
			"type":"SCALAR"
		},
		{
			"bufferView":16,
			"componentType":5126,
			"count":88,
			"max":[
				0.4066544473171234,
				1.5985219478607178,
				-0.667610764503479
			],
			"min":[
				-0.40665537118911743,
				0.45829543471336365,
				-1.8076311349868774
			],
			"type":"VEC3"
		},
		{
			"bufferView":17,
			"componentType":5126,
			"count":88,
			"type":"VEC3"
		},
		{
			"bufferView":18,
			"componentType":5126,
			"count":88,
			"type":"VEC2"
		},
		{
			"bufferView":19,
			"componentType":5123,
			"count":132,
			"type":"SCALAR"
		},
		{
			"bufferView":20,
			"componentType":5126,
			"count":88,
			"max":[
				0.4066544473171234,
				1.5985219478607178,
				-0.667610764503479
			],
			"min":[
				-0.40665537118911743,
				0.45829543471336365,
				-1.8076311349868774
			],
			"type":"VEC3"
		},
		{
			"bufferView":21,
			"componentType":5126,
			"count":88,
			"type":"VEC3"
		},
		{
			"bufferView":22,
			"componentType":5126,
			"count":88,
			"type":"VEC2"
		},
		{
			"bufferView":23,
			"componentType":5126,
			"count":102,
			"max":[
				0.38573911786079407,
				1,
				0.3857390880584717
			],
			"min":[
				-0.3857390880584717,
				-0.04530668258666992,
				-0.3857390880584717
			],
			"type":"VEC3"
		},
		{
			"bufferView":24,
			"componentType":5126,
			"count":102,
			"type":"VEC3"
		},
		{
			"bufferView":25,
			"componentType":5126,
			"count":102,
			"type":"VEC2"
		},
		{
			"bufferView":26,
			"componentType":5123,
			"count":276,
			"type":"SCALAR"
		}
	],
	"bufferViews":[
		{
			"buffer":0,
			"byteLength":948,
			"byteOffset":0,
			"target":34962
		},
		{
			"buffer":0,
			"byteLength":948,
			"byteOffset":948,
			"target":34962
		},
		{
			"buffer":0,
			"byteLength":632,
			"byteOffset":1896,
			"target":34962
		},
		{
			"buffer":0,
			"byteLength":648,
			"byteOffset":2528,
			"target":34963
		},
		{
			"buffer":0,
			"byteLength":648,
			"byteOffset":3176,
			"target":34962
		},
		{
			"buffer":0,
			"byteLength":648,
			"byteOffset":3824,
			"target":34962
		},
		{
			"buffer":0,
			"byteLength":432,
			"byteOffset":4472,
			"target":34962
		},
		{
			"buffer":0,
			"byteLength":336,
			"byteOffset":4904,
			"target":34963
		},
		{
			"buffer":0,
			"byteLength":576,
			"byteOffset":5240,
			"target":34962
		},
		{
			"buffer":0,
			"byteLength":576,
			"byteOffset":5816,
			"target":34962
		},
		{
			"buffer":0,
			"byteLength":384,
			"byteOffset":6392,
			"target":34962
		},
		{
			"buffer":0,
			"byteLength":168,
			"byteOffset":6776,
			"target":34963
		},
		{
			"buffer":0,
			"byteLength":1056,
			"byteOffset":6944,
			"target":34962
		},
		{
			"buffer":0,
			"byteLength":1056,
			"byteOffset":8000,
			"target":34962
		},
		{
			"buffer":0,
			"byteLength":704,
			"byteOffset":9056,
			"target":34962
		},
		{
			"buffer":0,
			"byteLength":264,
			"byteOffset":9760,
			"target":34963
		},
		{
			"buffer":0,
			"byteLength":1056,
			"byteOffset":10024,
			"target":34962
		},
		{
			"buffer":0,
			"byteLength":1056,
			"byteOffset":11080,
			"target":34962
		},
		{
			"buffer":0,
			"byteLength":704,
			"byteOffset":12136,
			"target":34962
		},
		{
			"buffer":0,
			"byteLength":264,
			"byteOffset":12840,
			"target":34963
		},
		{
			"buffer":0,
			"byteLength":1056,
			"byteOffset":13104,
			"target":34962
		},
		{
			"buffer":0,
			"byteLength":1056,
			"byteOffset":14160,
			"target":34962
		},
		{
			"buffer":0,
			"byteLength":704,
			"byteOffset":15216,
			"target":34962
		},
		{
			"buffer":0,
			"byteLength":1224,
			"byteOffset":15920,
			"target":34962
		},
		{
			"buffer":0,
			"byteLength":1224,
			"byteOffset":17144,
			"target":34962
		},
		{
			"buffer":0,
			"byteLength":816,
			"byteOffset":18368,
			"target":34962
		},
		{
			"buffer":0,
			"byteLength":552,
			"byteOffset":19184,
			"target":34963
		}
	],
	"buffers":[
		{
			"byteLength":19736,
			"uri":"MineralBin.bin"
		}
	]
}
